<svg width="35" height="36" viewBox="0 0 35 36" fill="none" xmlns="http://www.w3.org/2000/svg">
<path d="M8.75 3.41675C9.10719 3.4168 9.45195 3.54793 9.71888 3.78529C9.9858 4.02265 10.1563 4.34971 10.1981 4.70446L10.2083 4.87508V6.43258L29.2702 7.79612C29.6449 7.82266 29.9949 7.99274 30.2473 8.27093C30.4996 8.54913 30.635 8.91397 30.625 9.28946L30.6104 9.45571L29.1521 19.664C29.1067 19.9837 28.9565 20.2793 28.725 20.5044C28.4936 20.7295 28.1939 20.8715 27.8731 20.908L27.7083 20.9167H10.2083V23.8334H24.7917C25.646 23.8335 26.4817 24.0837 27.1955 24.5531C27.9093 25.0226 28.47 25.6908 28.8085 26.4752C29.1469 27.2597 29.2483 28.126 29.1001 28.9674C28.9519 29.8088 28.5605 30.5884 27.9744 31.21C27.3882 31.8315 26.6329 32.2679 25.8017 32.4652C24.9704 32.6625 24.0996 32.612 23.2966 32.3201C22.4937 32.0282 21.7938 31.5076 21.2833 30.8226C20.7728 30.1375 20.4741 29.318 20.424 28.4651L20.4167 28.2084L20.424 27.9517C20.4502 27.5308 20.5309 27.1302 20.666 26.7501H12.8756C13.0838 27.3405 13.1628 27.9687 13.1073 28.5922C13.0519 29.2157 12.8633 29.8201 12.5543 30.3645C12.2452 30.9089 11.8229 31.3807 11.316 31.7479C10.809 32.1151 10.2291 32.3693 9.61548 32.4932C9.00185 32.6171 8.36879 32.6079 7.75904 32.4661C7.14928 32.3244 6.57705 32.0535 6.08098 31.6716C5.58491 31.2898 5.17656 30.806 4.88351 30.2528C4.59046 29.6996 4.41954 29.09 4.38229 28.4651L4.375 28.2084L4.38229 27.9517C4.43238 27.0919 4.73518 26.2659 5.25274 25.5774C5.77029 24.8888 6.47957 24.3684 7.29167 24.0813V6.33341H5.83333C5.47614 6.33337 5.13138 6.20223 4.86446 5.96487C4.59753 5.72751 4.427 5.40045 4.38521 5.04571L4.375 4.87508C4.37505 4.51789 4.50619 4.17313 4.74354 3.90621C4.9809 3.63928 5.30797 3.46875 5.66271 3.42696L5.83333 3.41675H8.75ZM8.75 26.7501C8.36323 26.7501 7.99229 26.9037 7.7188 27.1772C7.44531 27.4507 7.29167 27.8216 7.29167 28.2084C7.29167 28.5952 7.44531 28.9661 7.7188 29.2396C7.99229 29.5131 8.36323 29.6667 8.75 29.6667C9.13677 29.6667 9.50771 29.5131 9.7812 29.2396C10.0547 28.9661 10.2083 28.5952 10.2083 28.2084C10.2083 27.8216 10.0547 27.4507 9.7812 27.1772C9.50771 26.9037 9.13677 26.7501 8.75 26.7501ZM24.7917 26.7501C24.4049 26.7501 24.034 26.9037 23.7605 27.1772C23.487 27.4507 23.3333 27.8216 23.3333 28.2084C23.3333 28.5952 23.487 28.9661 23.7605 29.2396C24.034 29.5131 24.4049 29.6667 24.7917 29.6667C25.1784 29.6667 25.5494 29.5131 25.8229 29.2396C26.0964 28.9661 26.25 28.5952 26.25 28.2084C26.25 27.8216 26.0964 27.4507 25.8229 27.1772C25.5494 26.9037 25.1784 26.7501 24.7917 26.7501Z" fill="black"/>
</svg>
